<svg width="300" height="45" viewBox="0 0 300 45" fill="none" xmlns="http://www.w3.org/2000/svg">
<path d="M137.683 36.2441C137.683 37.7407 137.309 39.1132 136.561 40.3604C135.843 41.6073 134.861 42.5896 133.614 43.3066C132.367 44.0548 130.995 44.4287 129.499 44.4287H110.792V39.752H129.499C130.465 39.7519 131.292 39.4094 131.978 38.7236C132.663 38.0377 133.007 37.2107 133.007 36.2441V14.0303H120.146C118.649 14.0303 117.293 14.4042 116.077 15.1523C114.861 15.9006 113.878 16.8984 113.13 18.1455C112.413 19.3614 112.055 20.7183 112.055 22.2148C112.055 23.7112 112.413 25.0831 113.13 26.3301C113.878 27.546 114.861 28.5281 116.077 29.2764C117.293 29.9933 118.649 30.3673 120.146 30.3984H130.668V35.0752H120.146C118.368 35.0752 116.7 34.7475 115.142 34.0928C113.614 33.4069 112.257 32.4719 111.072 31.2871C109.919 30.1025 109.015 28.7462 108.36 27.2188C107.706 25.66 107.378 23.9918 107.378 22.2148C107.378 20.4377 107.706 18.7846 108.36 17.2568C109.015 15.6981 109.919 14.3263 111.072 13.1416C112.257 11.9568 113.614 11.0366 115.142 10.3818C116.7 9.69603 118.369 9.35352 120.146 9.35352H137.683V36.2441ZM30.3047 35.0752H25.6279V14.0303H12.7676C11.271 14.0303 9.91419 14.4041 8.69824 15.1523C7.48241 15.8694 6.50018 16.8516 5.75195 18.0986C5.03486 19.3458 4.67676 20.7183 4.67676 22.2148C4.67683 23.7112 5.03494 25.0831 5.75195 26.3301C6.50018 27.5459 7.48241 28.5281 8.69824 29.2764C9.91419 29.9935 11.271 30.3673 12.7676 30.3984H23.29V35.0752H12.7676C10.9905 35.0752 9.32254 34.7475 7.76367 34.0928C6.23595 33.4069 4.8791 32.4719 3.69434 31.2871C2.54092 30.1025 1.63712 28.7463 0.982422 27.2188C0.32774 25.66 5.73619e-05 23.9918 0 22.2148C0 20.4377 0.327682 18.7846 0.982422 17.2568C1.63712 15.6981 2.54089 14.3263 3.69434 13.1416C4.8791 11.9568 6.23595 11.0366 7.76367 10.3818C9.32245 9.69605 10.9906 9.35352 12.7676 9.35352H25.6279V0H30.3047V35.0752ZM57.375 9.35352C58.9026 9.35352 60.2744 9.72743 61.4902 10.4756C62.7372 11.1926 63.7194 12.1749 64.4365 13.4219C65.1848 14.6378 65.5596 16.0104 65.5596 17.5381C65.5595 19.0345 65.1847 20.4063 64.4365 21.6533C63.7194 22.9003 62.7373 23.8983 61.4902 24.6465C60.2744 25.3635 58.9026 25.7217 57.375 25.7217H39.4629C40.1176 27.0934 41.0842 28.2159 42.3623 29.0889C43.6718 29.9618 45.1375 30.3984 46.7588 30.3984H62.0518V35.0752H46.7588C44.9817 35.0752 43.3138 34.7475 41.7549 34.0928C40.2272 33.4069 38.8703 32.4719 37.6855 31.2871C36.5322 30.1025 35.6283 28.7462 34.9736 27.2188C34.319 25.66 33.9913 23.9918 33.9912 22.2148C33.9912 20.4377 34.3189 18.7846 34.9736 17.2568C35.6283 15.6981 36.5321 14.3263 37.6855 13.1416C38.8703 11.9568 40.2272 11.0366 41.7549 10.3818C43.3137 9.69601 44.9818 9.35352 46.7588 9.35352H57.375ZM93.2588 14.0303H74.5518C73.8972 14.0304 73.3357 14.2639 72.8682 14.7314C72.4318 15.1679 72.2139 15.7136 72.2139 16.3682C72.2139 17.0227 72.4319 17.5842 72.8682 18.0518C73.3357 18.4882 73.8972 18.707 74.5518 18.707H87.4131C88.9407 18.707 90.3124 19.0809 91.5283 19.8291C92.7754 20.5461 93.7575 21.5284 94.4746 22.7754C95.2228 23.9912 95.5976 25.3631 95.5977 26.8906C95.5977 28.4184 95.2229 29.8066 94.4746 31.0537C93.7575 32.2695 92.7753 33.2518 91.5283 34C90.3125 34.717 88.9407 35.0752 87.4131 35.0752H67.5371V30.3984H87.4131C88.3795 30.3984 89.2057 30.0559 89.8916 29.3701C90.5775 28.6842 90.9209 27.8571 90.9209 26.8906C90.9208 25.9243 90.5774 25.0979 89.8916 24.4121C89.2057 23.7263 88.3795 23.3838 87.4131 23.3838H74.5518C73.2737 23.3837 72.0891 23.0717 70.998 22.4482C69.938 21.8247 69.0962 20.9828 68.4727 19.9229C67.8491 18.8316 67.5371 17.6465 67.5371 16.3682C67.5372 15.0588 67.8492 13.8744 68.4727 12.8145C69.0962 11.7544 69.938 10.9126 70.998 10.2891C72.0892 9.66558 73.2736 9.35357 74.5518 9.35352H93.2588V14.0303ZM103.677 35.0752H99V9.35352H103.677V35.0752ZM160.544 9.35352C162.321 9.35352 163.973 9.69604 165.501 10.3818C167.06 11.0366 168.417 11.9568 169.57 13.1416C170.755 14.3263 171.674 15.6981 172.329 17.2568C172.984 18.7846 173.312 20.4377 173.312 22.2148V35.0752H168.635V22.2148C168.635 20.7183 168.276 19.3615 167.559 18.1455C166.842 16.8985 165.859 15.9006 164.612 15.1523C163.396 14.4042 162.04 14.0303 160.544 14.0303H147.683V35.0752H143.006V9.35352H160.544ZM204.655 14.0303H189.362C187.866 14.0303 186.509 14.4041 185.293 15.1523C184.077 15.9006 183.095 16.8984 182.347 18.1455C181.63 19.3615 181.271 20.7183 181.271 22.2148C181.272 23.7112 181.63 25.0831 182.347 26.3301C183.095 27.546 184.077 28.5281 185.293 29.2764C186.509 30.0246 187.866 30.3984 189.362 30.3984H204.655V35.0752H189.362C187.585 35.0752 185.916 34.7475 184.357 34.0928C182.83 33.4069 181.474 32.4717 180.289 31.2871C179.136 30.1024 178.231 28.7464 177.576 27.2188C176.921 25.66 176.595 23.9918 176.595 22.2148C176.595 20.4377 176.921 18.7846 177.576 17.2568C178.231 15.698 179.136 14.3263 180.289 13.1416C181.474 11.9569 182.83 11.0366 184.357 10.3818C185.916 9.69592 187.585 9.35352 189.362 9.35352H204.655V14.0303ZM229.479 9.35352C231.007 9.35358 232.379 9.72739 233.595 10.4756C234.842 11.1926 235.824 12.1748 236.541 13.4219C237.289 14.6378 237.663 16.0104 237.663 17.5381V35.0752H214.28C212.784 35.0752 211.411 34.7171 210.164 34C208.917 33.2518 207.919 32.2696 207.171 31.0537C206.454 29.8066 206.096 28.4184 206.096 26.8906C206.096 25.3631 206.454 23.9912 207.171 22.7754C207.919 21.5283 208.917 20.5462 210.164 19.8291C211.411 19.0808 212.784 18.707 214.28 18.707H230.648V23.3838H214.28C213.314 23.3838 212.487 23.7262 211.801 24.4121C211.115 25.0979 210.773 25.9243 210.772 26.8906C210.772 27.8571 211.115 28.6842 211.801 29.3701C212.487 30.056 213.314 30.3984 214.28 30.3984H232.986V17.5381C232.986 16.5716 232.644 15.7445 231.958 15.0586C231.272 14.3728 230.446 14.0304 229.479 14.0303H210.772V9.35352H229.479ZM268.325 14.0303H250.787C249.821 14.0303 248.994 14.3728 248.309 15.0586C247.623 15.7445 247.28 16.5716 247.28 17.5381V35.0752H242.604V17.5381C242.604 16.0104 242.962 14.6378 243.679 13.4219C244.427 12.1748 245.425 11.1926 246.672 10.4756C247.919 9.7274 249.291 9.35356 250.787 9.35352H268.325V14.0303ZM291.815 9.35352C293.343 9.35352 294.716 9.72731 295.932 10.4756C297.179 11.1927 298.161 12.1748 298.878 13.4219C299.626 14.6378 300 16.0104 300 17.5381C300 19.0345 299.626 20.4063 298.878 21.6533C298.161 22.9004 297.179 23.8982 295.932 24.6465C294.716 25.3636 293.343 25.7217 291.815 25.7217H273.904C274.559 27.0935 275.525 28.2159 276.804 29.0889C278.113 29.9618 279.578 30.3984 281.199 30.3984H296.492V35.0752H281.199C279.422 35.0751 277.754 34.7475 276.195 34.0928C274.668 33.4069 273.312 32.4718 272.127 31.2871C270.973 30.1024 270.069 28.7464 269.414 27.2188C268.759 25.66 268.433 23.9918 268.433 22.2148C268.433 20.4377 268.759 18.7846 269.414 17.2568C270.069 15.698 270.973 14.3263 272.127 13.1416C273.312 11.9569 274.668 11.0366 276.195 10.3818C277.754 9.69597 279.422 9.35357 281.199 9.35352H291.815ZM46.7588 14.0303C45.387 14.0303 44.1243 14.3423 42.9707 14.9658C41.8484 15.5894 40.9133 16.4312 40.165 17.4912C39.4168 18.5512 38.9488 19.7356 38.7617 21.0449H57.375C58.3414 21.0449 59.1676 20.7024 59.8535 20.0166C60.5393 19.3308 60.8827 18.5044 60.8828 17.5381C60.8828 16.5716 60.5394 15.7445 59.8535 15.0586C59.1677 14.3729 58.3414 14.0303 57.375 14.0303H46.7588ZM281.199 14.0303C279.828 14.0303 278.565 14.3423 277.411 14.9658C276.289 15.5894 275.354 16.4313 274.605 17.4912C273.857 18.5512 273.389 19.7356 273.202 21.0449H291.815C292.782 21.0449 293.608 20.7023 294.294 20.0166C294.98 19.3308 295.323 18.5044 295.323 17.5381C295.323 16.5716 294.98 15.7445 294.294 15.0586C293.608 14.373 292.782 14.0303 291.815 14.0303H281.199ZM101.339 0C102.305 9.51163e-05 103.132 0.343474 103.817 1.0293C104.503 1.71515 104.846 2.54145 104.846 3.50781C104.846 4.47418 104.503 5.30049 103.817 5.98633C103.132 6.67215 102.305 7.01455 101.339 7.01465C100.372 7.01465 99.5453 6.67225 98.8594 5.98633C98.1736 5.30051 97.8311 4.47414 97.8311 3.50781C97.8311 2.54149 98.1737 1.71513 98.8594 1.0293C99.5453 0.343379 100.372 0 101.339 0Z" fill="white"/>
</svg>
